<svg width="52" height="51" viewBox="0 0 52 51" fill="none" xmlns="http://www.w3.org/2000/svg">
<path d="M43.6359 0.0166016H7.94755C3.72395 0.0166016 0.300049 3.4405 0.300049 7.6641V43.3524C0.300049 47.576 3.72395 50.9999 7.94755 50.9999H43.6359C47.8595 50.9999 51.2834 47.576 51.2834 43.3524V7.6641C51.2834 3.4405 47.8595 0.0166016 43.6359 0.0166016Z" fill="#7289DA"/>
<path d="M34.7536 39.0507L32.6625 36.5613C36.7451 35.4659 38.3384 32.6778 38.3384 32.6778C33.1604 37.557 19.0205 37.7562 13.5437 32.6778C13.5437 32.6778 14.9378 35.2668 19.1201 36.5613L16.8298 39.0507C9.85941 38.9511 7.17083 34.271 7.17083 34.271C7.17083 23.915 11.7514 15.6501 11.7514 15.6501C16.4315 12.3641 20.7133 12.3641 20.7133 12.3641L21.012 12.7624C15.2366 14.3556 12.7471 16.9446 12.7471 16.9446C19.5184 12.3641 33.4591 12.7624 38.9358 16.9446C39.0354 16.8451 35.6498 14.1565 30.3722 12.7624L30.8701 12.3641C30.8701 12.3641 35.1519 12.3641 39.832 15.6501C39.832 15.6501 44.4126 23.915 44.4126 34.271C44.4126 34.271 41.724 38.9511 34.7536 39.0507Z" fill="white"/>
<path d="M19.8171 31.2837C21.6319 31.2837 23.1031 29.7234 23.1031 27.7985C23.1031 25.8737 21.6319 24.3134 19.8171 24.3134C18.0023 24.3134 16.5311 25.8737 16.5311 27.7985C16.5311 29.7234 18.0023 31.2837 19.8171 31.2837Z" fill="#7289DA"/>
<path d="M31.368 31.2837C33.1828 31.2837 34.654 29.7234 34.654 27.7985C34.654 25.8737 33.1828 24.3134 31.368 24.3134C29.5531 24.3134 28.0819 25.8737 28.0819 27.7985C28.0819 29.7234 29.5531 31.2837 31.368 31.2837Z" fill="#7289DA"/>
</svg>
