<svg width="52" height="51" viewBox="0 0 52 51" fill="none" xmlns="http://www.w3.org/2000/svg">
<path d="M25.6499 0.0166016C15.0074 0.0166016 11.8948 0.0275835 11.2898 0.0777867C9.10577 0.259381 7.74673 0.603352 6.26614 1.34071C5.12511 1.90746 4.22523 2.56442 3.33711 3.48533C1.71968 5.16479 0.739412 7.23096 0.384556 9.687C0.212029 10.8793 0.16184 11.1225 0.151645 17.2128C0.147724 19.2429 0.151645 21.9146 0.151645 25.4983C0.151645 36.1351 0.163408 39.2453 0.214382 39.8493C0.39083 41.9751 0.724119 43.3126 1.42991 44.7755C2.77875 47.5759 5.35489 49.6782 8.38979 50.4626C9.44063 50.7332 10.6013 50.8823 12.0913 50.9529C12.7226 50.9803 19.157 50.9999 25.5954 50.9999C32.0338 50.9999 38.4721 50.9921 39.0877 50.9607C40.813 50.8795 41.8148 50.745 42.9225 50.4587C44.4274 50.0727 45.8298 49.3627 47.0319 48.3784C48.234 47.3941 49.2069 46.1592 49.8824 44.7598C50.5745 43.3322 50.9254 41.9437 51.0842 39.929C51.1187 39.4897 51.1332 32.4859 51.1332 25.4916C51.1332 18.4961 51.1175 11.5053 51.083 11.066C50.9223 9.01867 50.5713 7.642 49.8569 6.18689C49.2707 4.99574 48.6198 4.1062 47.6749 3.19666C45.9888 1.58545 43.9263 0.604921 41.4682 0.25036C40.2774 0.078179 40.0402 0.0271913 33.9468 0.0166016H25.6499Z" fill="url(#paint0_radial_145_46)"/>
<path d="M25.6499 0.0166016C15.0074 0.0166016 11.8948 0.0275835 11.2898 0.0777867C9.10577 0.259381 7.74673 0.603352 6.26614 1.34071C5.12511 1.90746 4.22523 2.56442 3.33711 3.48533C1.71968 5.16479 0.739412 7.23096 0.384556 9.687C0.212029 10.8793 0.16184 11.1225 0.151645 17.2128C0.147724 19.2429 0.151645 21.9146 0.151645 25.4983C0.151645 36.1351 0.163408 39.2453 0.214382 39.8493C0.39083 41.9751 0.724119 43.3126 1.42991 44.7755C2.77875 47.5759 5.35489 49.6782 8.38979 50.4626C9.44063 50.7332 10.6013 50.8823 12.0913 50.9529C12.7226 50.9803 19.157 50.9999 25.5954 50.9999C32.0338 50.9999 38.4721 50.9921 39.0877 50.9607C40.813 50.8795 41.8148 50.745 42.9225 50.4587C44.4274 50.0727 45.8298 49.3627 47.0319 48.3784C48.234 47.3941 49.2069 46.1592 49.8824 44.7598C50.5745 43.3322 50.9254 41.9437 51.0842 39.929C51.1187 39.4897 51.1332 32.4859 51.1332 25.4916C51.1332 18.4961 51.1175 11.5053 51.083 11.066C50.9223 9.01867 50.5713 7.642 49.8569 6.18689C49.2707 4.99574 48.6198 4.1062 47.6749 3.19666C45.9888 1.58545 43.9263 0.604921 41.4682 0.25036C40.2774 0.078179 40.0402 0.0271913 33.9468 0.0166016H25.6499Z" fill="url(#paint1_radial_145_46)"/>
<path d="M25.6387 6.68369C20.5272 6.68369 19.8857 6.70605 17.8782 6.79743C15.8745 6.88921 14.5068 7.20651 13.3101 7.67207C12.0723 8.15292 11.0222 8.79615 9.97606 9.84297C8.92914 10.8894 8.28608 11.9397 7.80379 13.1776C7.33719 14.375 7.01958 15.7434 6.9294 17.7468C6.84 19.755 6.81647 20.397 6.81647 25.5099C6.81647 30.6228 6.83921 31.2625 6.93018 33.2706C7.02233 35.2748 7.33954 36.6429 7.80458 37.8399C8.28569 39.0781 8.92874 40.1285 9.97528 41.1749C11.021 42.2221 12.0711 42.8669 13.3082 43.3477C14.5057 43.8133 15.8737 44.1306 17.877 44.2224C19.8846 44.3138 20.5257 44.3361 25.6368 44.3361C30.7486 44.3361 31.3882 44.3138 33.3958 44.2224C35.3994 44.1306 36.7687 43.8133 37.9661 43.3477C39.2036 42.8669 40.2521 42.2221 41.2979 41.1749C42.3448 40.1285 42.9878 39.0781 43.4701 37.8403C43.9328 36.6429 44.2504 35.2744 44.3445 33.271C44.4347 31.2629 44.4582 30.6228 44.4582 25.5099C44.4582 20.397 44.4347 19.7554 44.3445 17.7472C44.2504 15.743 43.9328 14.375 43.4701 13.1779C42.9878 11.9397 42.3448 10.8894 41.2979 9.84297C40.2509 8.79576 39.204 8.15253 37.965 7.67207C36.7651 7.20651 35.3967 6.88921 33.393 6.79743C31.3854 6.70605 30.7463 6.68369 25.6332 6.68369H25.6387ZM23.9503 10.0763C24.4514 10.0755 25.0106 10.0763 25.6387 10.0763C30.664 10.0763 31.2596 10.0944 33.244 10.1846C35.0791 10.2685 36.075 10.5752 36.7385 10.8329C37.6168 11.1741 38.243 11.582 38.9013 12.241C39.56 12.8999 39.9678 13.5274 40.3098 14.406C40.5674 15.0688 40.8744 16.065 40.9579 17.9006C41.0481 19.8852 41.0677 20.4813 41.0677 25.5056C41.0677 30.5298 41.0481 31.126 40.9579 33.1106C40.874 34.9461 40.5674 35.9424 40.3098 36.6052C39.9686 37.4838 39.56 38.1093 38.9013 38.7679C38.2426 39.4268 37.6172 39.8347 36.7385 40.1759C36.0758 40.4348 35.0791 40.7407 33.244 40.8246C31.26 40.9148 30.664 40.9344 25.6387 40.9344C20.6131 40.9344 20.0175 40.9148 18.0334 40.8246C16.1984 40.7399 15.2024 40.4332 14.5386 40.1755C13.6603 39.8343 13.0329 39.4264 12.3742 38.7675C11.7154 38.1086 11.3077 37.4826 10.9657 36.6036C10.7081 35.9408 10.4011 34.9446 10.3176 33.109C10.2274 31.1244 10.2094 30.5283 10.2094 25.5009C10.2094 20.4735 10.2274 19.8805 10.3176 17.8959C10.4015 16.0603 10.7081 15.0641 10.9657 14.4005C11.3069 13.5219 11.7154 12.8944 12.3742 12.2355C13.0329 11.5765 13.6603 11.1686 14.5386 10.8266C15.202 10.5678 16.1984 10.2618 18.0334 10.1775C19.7697 10.0991 20.4425 10.0755 23.9503 10.0716V10.0763ZM35.6853 13.2023C35.2385 13.2023 34.8018 13.3348 34.4304 13.5831C34.059 13.8313 33.7695 14.1842 33.5986 14.5971C33.4277 15.0099 33.383 15.4642 33.4702 15.9024C33.5574 16.3407 33.7726 16.7432 34.0885 17.0591C34.4045 17.3751 34.807 17.5902 35.2451 17.6772C35.6833 17.7643 36.1374 17.7195 36.5501 17.5484C36.9628 17.3773 37.3155 17.0876 37.5635 16.716C37.8116 16.3443 37.9439 15.9075 37.9438 15.4606C37.9438 14.2134 36.9322 13.2023 35.6853 13.2023ZM25.6387 15.8419C20.301 15.8419 15.9733 20.1707 15.9733 25.5099C15.9733 30.8491 20.301 35.176 25.6387 35.176C30.9765 35.176 35.303 30.8491 35.303 25.5099C35.303 20.1707 30.9765 15.8419 25.6387 15.8419ZM25.6387 19.2345C29.1034 19.2345 31.9124 22.0439 31.9124 25.5099C31.9124 28.9755 29.1034 31.7853 25.6387 31.7853C22.1737 31.7853 19.365 28.9755 19.365 25.5099C19.365 22.0439 22.1737 19.2345 25.6387 19.2345Z" fill="white"/>
<defs>
<radialGradient id="paint0_radial_145_46" cx="0" cy="0" r="1" gradientUnits="userSpaceOnUse" gradientTransform="translate(13.6924 54.9267) rotate(-90) scale(50.5283 46.9952)">
<stop stop-color="#FFDD55"/>
<stop offset="0.1" stop-color="#FFDD55"/>
<stop offset="0.5" stop-color="#FF543E"/>
<stop offset="1" stop-color="#C837AB"/>
</radialGradient>
<radialGradient id="paint1_radial_145_46" cx="0" cy="0" r="1" gradientUnits="userSpaceOnUse" gradientTransform="translate(-8.39008 3.68936) rotate(78.6806) scale(22.5863 93.1018)">
<stop stop-color="#3771C8"/>
<stop offset="0.128" stop-color="#3771C8"/>
<stop offset="1" stop-color="#6600FF" stop-opacity="0"/>
</radialGradient>
</defs>
</svg>
